<svg xmlns="http://www.w3.org/2000/svg" width="100%" height="100%" viewBox="0 0 800 400">
  <!-- Gradient sky -->
  <defs>
    <linearGradient id="sky" x1="0" y1="0" x2="0" y2="1">
      <stop offset="0%" stop-color="#6a11cb"/>
      <stop offset="100%" stop-color="#2575fc"/>
    </linearGradient>
  </defs>
  <rect width="100%" height="100%" fill="url(#sky)" />

  <!-- Rising moon -->
  <circle cx="650" cy="350" r="40" fill="#fdfd96">
    <animate attributeName="cy" values="350;100;350" dur="12s" repeatCount="indefinite"/>
  </circle>

  <!-- Moving clouds -->
  <ellipse cx="200" cy="80" rx="70" ry="25" fill="white" opacity="0.8">
    <animate attributeName="cx" values="200;900" dur="30s" repeatCount="indefinite"/>
  </ellipse>
  <ellipse cx="500" cy="120" rx="90" ry="30" fill="white" opacity="0.7">
    <animate attributeName="cx" values="500;-200" dur="35s" repeatCount="indefinite"/>
  </ellipse>

  <!-- Sparkle stars -->
  <polygon points="400,100 410,130 440,130 415,150 425,180 400,160 375,180 385,150 360,130 390,130"
           fill="#fffacd">
    <animateTransform attributeName="transform" type="scale"
      values="1;1.5;1" dur="2s" repeatCount="indefinite"/>
  </polygon>
  <polygon points="200,200 210,220 230,220 215,240 225,260 200,240 175,260 185,240 160,220 190,220"
           fill="#fffacd">
    <animateTransform attributeName="transform" type="rotate"
      values="0 200 200;360 200 200" dur="4s" repeatCount="indefinite"/>
  </polygon>

  <!-- Anime character silhouette (simple chibi figure) -->
  <g fill="black">
    <!-- Head -->
    <circle cx="150" cy="300" r="40" fill="#111"/>
    <!-- Body -->
    <rect x="140" y="340" width="20" height="50" fill="#111"/>
    <!-- Arms -->
    <line x1="140" y1="350" x2="100" y2="370" stroke="#111" stroke-width="8">
      <animate attributeName="x2" values="100;120;100" dur="2s" repeatCount="indefinite"/>
    </line>
    <line x1="160" y1="350" x2="200" y2="370" stroke="#111" stroke-width="8"/>
    <!-- Legs -->
    <line x1="145" y1="390" x2="130" y2="430" stroke="#111" stroke-width="8"/>
    <line x1="155" y1="390" x2="170" y2="430" stroke="#111" stroke-width="8"/>
  </g>

  <!-- Glowing anime text -->
  <text x="50%" y="95%" text-anchor="middle" font-size="40" font-family="Comic Sans MS"
        fill="white" stroke="pink" stroke-width="2">
    🌸 My Anime Scene 🌸
    <animate attributeName="fill" values="white;pink;yellow;white" dur="6s" repeatCount="indefinite"/>
  </text>
</svg>
